#!OML:ASF F:\VICON\USERDATA\INSTALL\rory3\rory3.ASF
:FULLY-SPECIFIED
:DEGREES
1172
root -0.755111 17.4667 -1.35673 0.263712 -20.3104 2.71431
lowerback 10.6236 -0.542921 -1.59999
upperback 2.7174 -0.819634 2.55289
thorax -3.0612 -0.407689 3.66806
lowerneck -20.369 -7.67879 -11.9847
upperneck 5.86378 -8.8921 14.023
head 6.28016 -3.59714 5.44051
rclavicle -4.25399e-014 5.56597e-015
rhumerus 21.2285 -1.13362 -42.5206
rradius 60.7304
rwrist 10.8984
rhand -26.236 0.316315
rfingers 7.12502
rthumb 0.317837 -29.6632
lclavicle -4.25399e-014 5.56597e-015
lhumerus -7.43086 -1.53328 52.7731
lradius 63.5604
lwrist 3.61687
lhand -19.7543 30.7293
lfingers 7.12502
lthumb 6.577 60.6072
rfemur -24.5128 -1.27553 3.706
rtibia 28.8214
rfoot -15.5578 -17.9841
rtoes 10.4354
lfemur -14.1281 2.51354 -20.2202
ltibia 33.6548
lfoot -16.0847 -0.831555
ltoes -17.0348
1173
root -0.698999 17.4958 -1.3751 0.0593889 -20.2843 2.66212
lowerback 10.2679 -0.554854 -1.56057
upperback 2.65409 -0.830305 2.49585
thorax -2.9318 -0.413978 3.58065
lowerneck -20.4436 -7.50247 -11.7061
upperneck 6.11192 -8.71516 13.8218
head 6.32329 -3.51226 5.35248
rclavicle 8.94531e-015 -1.19271e-014
rhumerus 21.782 -2.2308 -42.2817
rradius 61.6251
rwrist 10.9569
rhand -26.156 0.300273
rfingers 7.12502
rthumb 0.39512 -29.6791
lclavicle 8.94531e-015 -1.19271e-014
lhumerus -6.85405 -0.470734 51.3727
lradius 63.852
lwrist 4.92658
lhand -19.818 30.8355
lfingers 7.12502
lthumb 6.51553 60.7152
rfemur -24.0745 -1.66662 3.9185
rtibia 29.3837
rfoot -16.6643 -18.5643
rtoes 10.5849
lfemur -13.6586 2.30314 -20.3285
ltibia 32.9738
lfoot -15.6588 -0.791014
ltoes -16.1219
1174
root -0.644743 17.523 -1.38431 -0.193152 -20.4109 2.62042
lowerback 9.91022 -0.494147 -1.47053
upperback 2.58511 -0.739963 2.42886
thorax -2.81506 -0.369936 3.44221
lowerneck -20.4999 -7.35546 -11.437
upperneck 6.36081 -8.56467 13.5324
head 6.36298 -3.44752 5.233
rclavicle -1.31198e-014 3.57812e-014
rhumerus 22.1423 -3.20283 -41.9857
rradius 62.6094
rwrist 10.7028
rhand -26.2661 0.36811
rfingers 7.12502
rthumb 0.288713 -29.6114
lclavicle -1.31198e-014 3.57812e-014
lhumerus -6.23839 0.479666 50.0936
lradius 64.012
lwrist 6.27998
lhand -19.9781 30.7665
lfingers 7.12502
lthumb 6.361 60.6509
rfemur -23.6778 -2.04905 4.11755
rtibia 30.2395
rfoot -17.2357 -18.5442
rtoes 10.9355
lfemur -13.1024 2.1792 -20.47
ltibia 32.3302
lfoot -15.2876 -0.553376
ltoes -15.9127
1175
root -0.592386 17.5472 -1.40004 -0.383181 -20.4244 2.59546
lowerback 9.70632 -0.47933 -1.47689
upperback 2.39015 -0.715926 2.44544
thorax -2.90633 -0.35374 3.45891
lowerneck -20.5064 -7.18549 -11.4006
upperneck 6.63962 -8.34455 13.3589
head 6.41291 -3.3485 5.20075
rclavicle -2.72335e-014 -3.10104e-014
rhumerus 22.4346 -3.89265 -41.5346
rradius 63.7215
rwrist 10.1588
rhand -26.4144 0.320291
rfingers 7.12502
rthumb 0.145474 -29.6594
lclavicle -2.72335e-014 -3.10104e-014
lhumerus -5.75257 1.53657 49.0454
lradius 64.0757
lwrist 7.41231
lhand -20.2345 31.1222
lfingers 7.12502
lthumb 6.11338 61.0139
rfemur -23.3669 -2.48676 4.28437
rtibia 31.345
rfoot -17.3586 -18.2921
rtoes 10.1384
lfemur -12.687 1.99407 -20.6216
ltibia 31.7188
lfoot -14.891 -0.397498
ltoes -16.2043
1176
root -0.541099 17.5712 -1.42032 -0.543727 -20.4526 2.53151
lowerback 9.49517 -0.472408 -1.48903
upperback 2.23264 -0.702494 2.49916
thorax -2.9532 -0.343977 3.51844
lowerneck -20.5436 -7.01252 -11.3104
upperneck 6.80156 -8.10756 13.099
head 6.42167 -3.24753 5.13213
rclavicle 1.76918e-014 -1.03368e-014
rhumerus 22.8452 -4.65654 -41.1774
rradius 64.776
rwrist 9.78742
rhand -26.4242 0.425422
rfingers 7.12502
rthumb 0.136087 -29.5543
lclavicle 1.76918e-014 -1.03368e-014
lhumerus -5.25096 2.77088 48.0703
lradius 64.1281
lwrist 8.39433
lhand -20.0875 31.3773
lfingers 7.12502
lthumb 6.25534 61.2649
rfemur -23.1013 -2.91767 4.50801
rtibia 32.6414
rfoot -17.286 -17.8526
rtoes 8.96666
lfemur -12.3107 1.76076 -20.7175
ltibia 31.1175
lfoot -14.483 -0.213938
ltoes -16.3078
1177
root -0.490569 17.5936 -1.44026 -0.815081 -20.5311 2.55385
lowerback 9.3105 -0.434342 -1.56654
upperback 2.14925 -0.657101 2.49945
thorax -2.93984 -0.319819 3.5551
lowerneck -20.5667 -6.85478 -11.1733
upperneck 6.8146 -7.89527 12.8645
head 6.3844 -3.15808 5.06023
rclavicle -4.83047e-014 1.66979e-014
rhumerus 23.2524 -5.56746 -40.8935
rradius 65.7605
rwrist 9.59508
rhand -26.2919 0.866759
rfingers 7.12502
rthumb 0.263821 -29.1128
lclavicle -4.83047e-014 1.66979e-014
lhumerus -4.7651 4.00424 47.1135
lradius 64.2563
lwrist 9.27449
lhand -19.6015 30.9298
lfingers 7.12502
lthumb 6.72448 60.803
rfemur -22.7637 -3.303 4.62852
rtibia 34.1118
rfoot -17.0562 -16.9859
rtoes 8.91333
lfemur -11.837 1.52112 -20.8805
ltibia 30.5275
lfoot -14.0641 -0.0816277
ltoes -15.1866
1178
root -0.440623 17.6156 -1.45736 -1.08777 -20.6108 2.54229
lowerback 9.08169 -0.404038 -1.54418
upperback 2.10911 -0.614372 2.45456
thorax -2.85862 -0.299247 3.48712
lowerneck -20.5167 -6.71382 -10.9846
upperneck 6.63139 -7.72037 12.704
head 6.28068 -3.08488 4.99948
rclavicle 4.45278e-014 -1.66979e-014
rhumerus 23.6863 -6.70566 -40.8868
rradius 66.7424
rwrist 9.90253
rhand -25.7117 1.29384
rfingers 7.12502
rthumb 0.824224 -28.6843
lclavicle 4.45278e-014 -1.66979e-014
lhumerus -4.15604 5.3259 46.2075
lradius 64.3481
lwrist 9.81904
lhand -19.4086 30.4298
lfingers 7.12502
lthumb 6.91074 60.297
rfemur -22.3979 -3.67223 4.77055
rtibia 35.7099
rfoot -16.5308 -16.0106
rtoes 8.23249
lfemur -11.349 1.26111 -21.0188
ltibia 29.9492
lfoot -13.6894 0.117415
ltoes -14.4475
1179
root -0.391892 17.6367 -1.47805 -1.24671 -20.7121 2.50486
lowerback 8.74328 -0.37381 -1.52249
upperback 2.05909 -0.569915 2.45168
thorax -2.72632 -0.278324 3.46189
lowerneck -20.4342 -6.59002 -10.9708
upperneck 6.43189 -7.53666 12.634
head 6.17752 -3.00665 4.99878
rclavicle 2.98177e-015 -2.38542e-015
rhumerus 24.1734 -7.80851 -40.9789
rradius 67.835
rwrist 10.1809
rhand -25.5234 1.26072
rfingers 7.12502
rthumb 1.00605 -28.7167
lclavicle 2.98177e-015 -2.38542e-015
lhumerus -3.56352 6.8262 45.4723
lradius 64.4712
lwrist 10.0801
lhand -19.364 30.6355
lfingers 7.12502
lthumb 6.95383 60.5013
rfemur -22.1846 -4.06104 4.93949
rtibia 37.4189
rfoot -16.0226 -15.0851
rtoes 6.51372
lfemur -10.9835 1.12453 -21.1427
ltibia 29.3833
lfoot -13.3091 0.332429
ltoes -14.7646
1180
root -0.345798 17.6563 -1.50393 -1.41431 -20.8221 2.49348
lowerback 8.42901 -0.292392 -1.60399
upperback 2.01098 -0.465163 2.49742
thorax -2.60812 -0.226578 3.54042
lowerneck -20.3482 -6.4468 -11.1952
upperneck 6.33183 -7.28782 12.6736
head 6.11182 -2.89371 5.08221
rclavicle 3.97569e-016 -6.36111e-015
rhumerus 24.5026 -8.69986 -40.723
rradius 69.0595
rwrist 9.86484
rhand -25.9 0.851451
rfingers 7.12502
rthumb 0.64229 -29.1273
lclavicle 3.97569e-016 -6.36111e-015
lhumerus -3.09195 8.05446 44.8331
lradius 64.6148
lwrist 10.4472
lhand -19.6165 30.991
lfingers 7.12502
lthumb 6.71004 60.8647
rfemur -21.9938 -4.38539 5.10795
rtibia 39.1997
rfoot -15.6195 -14.2802
rtoes 5.653
lfemur -10.6523 1.04774 -21.275
ltibia 28.8362
lfoot -12.9052 0.518839
ltoes -15.0998
1181
root -0.300241 17.6729 -1.52872 -1.60283 -20.8743 2.48739
lowerback 8.16836 -0.206201 -1.65021
upperback 1.96631 -0.351791 2.51236
thorax -2.51753 -0.170377 3.56747
lowerneck -20.3796 -6.32913 -11.3032
upperneck 6.26312 -7.08355 12.6247
head 6.07098 -2.80108 5.10985
rclavicle 4.03533e-014 -8.74653e-015
rhumerus 24.7737 -9.65649 -40.6051
rradius 70.2857
rwrist 9.72652
rhand -26.0018 0.836633
rfingers 7.12502
rthumb 0.543978 -29.1424
lclavicle 4.03533e-014 -8.74653e-015
lhumerus -2.62723 8.94614 44.1215
lradius 64.9114
lwrist 10.8516
lhand -20.112 31.3358
lfingers 7.12502
lthumb 6.23165 61.2241
rfemur -21.7043 -4.71064 5.25553
rtibia 41.0096
rfoot -15.2823 -13.4767
rtoes 5.62364
lfemur -10.3253 0.910683 -21.3901
ltibia 28.3047
lfoot -12.5201 0.626732
ltoes -14.667
1182
root -0.25555 17.6888 -1.55114 -1.76664 -20.8296 2.4987
lowerback 7.87249 -0.18696 -1.67392
upperback 1.91871 -0.325969 2.49392
thorax -2.40431 -0.158186 3.55592
lowerneck -20.6055 -6.22151 -11.219
upperneck 6.34003 -6.90997 12.3787
head 6.0944 -2.72464 5.03498
rclavicle -1.04362e-014 3.97569e-015
rhumerus 25.1263 -10.7765 -40.9493
rradius 71.6298
rwrist 10.0108
rhand -25.7293 1.35247
rfingers 7.12502
rthumb 0.807219 -28.6257
lclavicle -1.04362e-014 3.97569e-015
lhumerus -2.13575 10.0132 43.4372
lradius 65.2218
lwrist 11.0395
lhand -20.336 31.3346
lfingers 7.12502
lthumb 6.01541 61.2292
rfemur -21.3415 -5.07378 5.35362
rtibia 42.8178
rfoot -15.0392 -12.809
rtoes 5.56468
lfemur -10.0365 0.70891 -21.524
ltibia 27.8124
lfoot -12.1894 0.651393
ltoes -14.3082
1183
root -0.21372 17.7077 -1.57434 -1.90849 -20.7191 2.48328
lowerback 7.56573 -0.19097 -1.72305
upperback 1.87236 -0.33242 2.49047
thorax -2.28095 -0.162152 3.57755
lowerneck -20.8053 -6.12224 -11.1826
upperneck 6.4187 -6.74636 12.1957
head 6.12073 -2.65083 4.98796
rclavicle 3.65764e-014 -1.43125e-014
rhumerus 25.3644 -11.8421 -41.1404
rradius 73.035
rwrist 10.0975
rhand -25.7359 1.80461
rfingers 7.12502
rthumb 0.800839 -28.1736
lclavicle 3.65764e-014 -1.43125e-014
lhumerus -1.67287 11.2443 42.8846
lradius 65.4718
lwrist 11.0616
lhand -20.5625 30.8226
lfingers 7.12502
lthumb 5.79676 60.7233
rfemur -20.9272 -5.57848 5.49161
rtibia 44.6016
rfoot -14.8962 -12.2142
rtoes 5.53238
lfemur -9.76337 0.511394 -21.6328
ltibia 27.3836
lfoot -11.9433 0.637441
ltoes -14.2966
1184
root -0.174 17.7241 -1.60219 -2.01901 -20.6064 2.3886
lowerback 7.38377 -0.190777 -1.77252
upperback 1.75027 -0.331682 2.52797
thorax -2.30542 -0.159273 3.64347
lowerneck -20.7637 -5.98096 -11.1164
upperneck 6.31967 -6.54802 12.0402
head 6.04937 -2.56713 4.95091
rclavicle -2.24627e-014 1.51076e-014
rhumerus 25.5308 -12.7578 -41.2142
rradius 74.4404
rwrist 9.85584
rhand -25.7864 2.09873
rfingers 7.12502
rthumb 0.752015 -27.8797
lclavicle -2.24627e-014 1.51076e-014
lhumerus -1.37814 12.3807 42.3692
lradius 65.8964
lwrist 11.1107
lhand -20.6661 30.6459
lfingers 7.12502
lthumb 5.69674 60.5494
rfemur -20.5008 -6.11596 5.73459
rtibia 46.3732
rfoot -14.8981 -11.6815
rtoes 5.60123
lfemur -9.52764 0.400645 -21.6445
ltibia 26.975
lfoot -11.6968 0.583137
ltoes -14.7226
1185
root -0.133955 17.7359 -1.63673 -2.15316 -20.4703 2.22687
lowerback 7.49731 -0.173737 -1.85093
upperback 1.51506 -0.309117 2.63501
thorax -2.61248 -0.139127 3.80084
lowerneck -20.7097 -5.86347 -11.1109
upperneck 6.35102 -6.37711 11.8833
head 6.02297 -2.49735 4.92031
rclavicle -5.66536e-015 -1.27222e-014
rhumerus 25.6358 -13.6306 -41.3314
rradius 75.9157
rwrist 9.64936
rhand -25.8316 2.17077
rfingers 7.12502
rthumb 0.708358 -27.8078
lclavicle -5.66536e-015 -1.27222e-014
lhumerus -1.20945 13.3419 41.9621
lradius 66.4412
lwrist 11.2686
lhand -20.6746 30.6937
lfingers 7.12502
lthumb 5.68852 60.5973
rfemur -20.0307 -6.55248 6.05646
rtibia 48.1283
rfoot -15.0497 -11.4921
rtoes 5.541
lfemur -9.32243 0.24473 -21.5525
ltibia 26.5818
lfoot -11.3899 0.446473
ltoes -15.006
